<?xml version="1.0" standalone="no"?>
<!DOCTYPE svg PUBLIC "-//W3C//DTD SVG 20010904//EN"
 "http://www.w3.org/TR/2001/REC-SVG-20010904/DTD/svg10.dtd">
<svg version="1.0" xmlns="http://www.w3.org/2000/svg"
 width="500.000000pt" height="224.000000pt" viewBox="0 0 500.000000 224.000000"
 preserveAspectRatio="xMidYMid meet">
<metadata>
Created by potrace 1.15, written by Peter Selinger 2001-2017
</metadata>
<g transform="translate(0.000000,224.000000) scale(0.100000,-0.100000)"
fill="#000000" stroke="none">
<path d="M2298 2033 c-14 -21 -40 -63 -58 -93 -18 -30 -61 -98 -95 -150 -33
-52 -81 -129 -105 -170 -24 -41 -47 -77 -50 -80 -5 -5 -32 -46 -84 -128 l-27
-42 -42 23 c-23 14 -79 47 -125 76 -46 28 -87 51 -92 51 -5 0 -14 -9 -20 -19
-5 -11 -16 -25 -22 -33 -7 -7 -26 -33 -43 -58 -16 -25 -48 -68 -70 -96 -22
-28 -47 -61 -55 -74 -8 -12 -36 -50 -61 -84 -25 -33 -65 -90 -89 -126 -24 -36
-50 -71 -57 -78 -7 -8 -18 -22 -23 -33 -9 -16 -7 -19 11 -19 19 0 59 33 59 49
0 3 14 21 30 40 17 18 30 37 30 42 0 4 6 14 13 21 6 7 35 45 64 83 29 39 61
79 71 91 11 11 25 32 32 45 7 13 16 26 19 29 4 3 18 21 31 40 13 19 27 37 30
40 3 3 18 22 33 43 l28 37 42 -22 c23 -13 44 -26 47 -29 8 -9 94 -65 110 -73
8 -3 2 -3 -15 0 -117 25 -136 25 -114 -2 15 -18 -11 -20 -31 -1 -8 6 -3 -4 11
-23 14 -19 36 -51 50 -70 13 -19 27 -36 32 -38 4 -2 7 -8 7 -14 0 -7 -4 -7
-12 0 -38 31 -118 64 -118 49 0 -2 9 -23 21 -46 11 -24 19 -44 17 -46 -2 -2
-20 5 -40 15 -21 10 -38 15 -38 12 0 -7 46 -91 70 -129 8 -12 11 -25 7 -29 -8
-8 -78 21 -127 53 -69 46 -61 29 40 -85 30 -34 57 -62 60 -62 11 0 41 60 35
70 -4 6 -2 9 3 8 9 -3 112 144 112 159 0 3 18 32 40 64 22 32 40 63 40 69 0 6
7 13 15 16 8 4 15 11 15 16 0 9 63 118 83 143 18 23 153 238 282 449 22 36 45
66 50 66 6 0 27 -25 49 -56 29 -42 34 -53 18 -45 -47 25 -39 9 35 -76 64 -72
93 -109 93 -117 0 -3 -21 4 -46 15 -26 11 -49 17 -52 15 -5 -6 16 -40 48 -76
12 -14 39 -45 59 -70 20 -25 53 -63 74 -84 35 -37 45 -56 30 -56 -8 0 -81 49
-106 71 -9 9 -30 22 -45 30 -38 19 -79 48 -133 92 -52 41 -73 49 -42 15 11
-13 29 -39 39 -58 10 -19 22 -37 25 -40 13 -10 39 -70 31 -70 -5 0 -32 7 -61
16 -80 23 -87 16 -36 -40 25 -26 45 -51 45 -55 1 -3 32 -40 70 -81 39 -41 70
-77 70 -81 0 -9 65 -79 73 -79 3 0 14 16 23 35 9 19 20 33 24 30 4 -3 11 12
15 33 3 20 12 46 19 57 8 11 17 36 21 55 4 19 16 45 26 58 10 13 21 37 25 55
10 49 43 120 66 145 35 36 65 28 124 -33 30 -31 53 -61 51 -67 -1 -7 13 -20
31 -29 18 -10 41 -24 50 -32 9 -8 32 -19 50 -25 18 -6 45 -20 60 -30 28 -19
99 -40 141 -41 22 0 137 -72 153 -95 13 -19 -1 -23 -44 -15 -24 5 -67 13 -96
19 -29 5 -57 12 -62 15 -8 5 -129 38 -260 70 l-25 7 24 -21 c13 -12 29 -21 36
-21 7 0 15 -4 17 -8 2 -5 26 -23 53 -42 60 -41 93 -70 78 -70 -15 0 -113 36
-158 58 -49 24 -121 40 -111 24 3 -6 19 -17 34 -25 15 -7 45 -24 67 -37 49
-28 126 -70 220 -120 91 -47 115 -63 115 -74 0 -5 -46 -5 -105 -1 -120 8 -136
-3 -42 -30 75 -21 106 -34 131 -57 17 -15 41 -18 164 -18 144 0 145 0 127 20
-10 11 -24 20 -32 20 -9 0 -12 6 -9 18 5 15 -4 24 -38 42 -25 12 -53 30 -63
39 -10 10 -27 21 -38 25 -43 18 4 15 59 -3 l58 -19 -4 23 c-5 23 -5 23 31 7
20 -9 50 -24 67 -33 36 -20 218 -117 254 -136 14 -7 30 -13 37 -13 21 0 25 20
6 27 -10 4 -46 28 -80 55 -34 26 -67 48 -73 48 -5 0 -10 5 -10 10 0 6 -7 10
-15 10 -8 0 -15 4 -15 8 0 5 -26 23 -58 41 -31 18 -69 48 -82 68 -14 20 -42
49 -63 64 -21 15 -56 48 -78 72 -33 38 -48 47 -106 61 -204 51 -181 40 -268
129 -134 137 -217 197 -274 197 -23 0 -87 -56 -107 -93 -14 -25 -33 -14 -74
41 -19 26 -37 49 -40 52 -3 3 -17 21 -30 40 -13 19 -27 37 -30 40 -3 3 -26 34
-51 70 -24 36 -46 67 -49 70 -3 3 -28 38 -55 78 -26 39 -49 72 -50 72 -1 0
-13 -17 -27 -37z"/>
<path d="M2140 1229 c0 -8 11 -37 24 -65 14 -27 31 -73 40 -101 l15 -53 -33 0
c-31 0 -33 -2 -28 -27 3 -21 -7 -10 -42 41 -26 38 -58 89 -72 113 -54 97 -77
118 -55 51 35 -105 52 -161 49 -162 -2 -1 -16 -8 -33 -15 -90 -39 -100 -46
-103 -73 l-3 -28 236 0 236 0 -17 32 c-9 17 -25 41 -36 52 -11 12 -35 44 -53
72 -18 28 -45 63 -60 78 -15 15 -36 44 -46 64 -10 20 -18 30 -19 21z"/>
<path d="M2387 1173 c10 -21 28 -51 40 -66 28 -35 28 -38 3 -67 -24 -28 -24
-31 -2 -69 23 -42 38 -45 61 -12 25 34 64 147 57 160 -4 5 -32 22 -64 38 -31
15 -63 34 -70 41 -7 6 -20 12 -28 12 -11 0 -11 -7 3 -37z"/>
<path d="M2920 1004 c0 -15 -22 -15 -83 3 -17 5 -18 3 -2 -26 l16 -31 -55 0
c-36 0 -58 -5 -66 -15 -7 -9 -19 -14 -26 -11 -7 3 -16 1 -19 -4 -4 -6 58 -10
164 -10 93 0 172 4 175 9 6 9 -30 50 -72 84 -27 21 -32 21 -32 1z"/>
<path d="M815 861 c-92 -26 -143 -73 -171 -159 -23 -70 -26 -267 -6 -355 16
-69 62 -132 117 -161 60 -32 199 -35 258 -7 100 48 137 124 145 294 5 110 -7
206 -33 263 -20 43 -69 91 -112 110 -45 18 -155 27 -198 15z m149 -174 c17
-24 22 -46 24 -129 7 -197 -16 -258 -96 -258 -84 0 -109 66 -100 260 4 80 9
103 27 129 21 30 27 32 74 29 41 -2 54 -8 71 -31z"/>
<path d="M3333 861 c-136 -35 -193 -137 -193 -347 0 -252 74 -353 261 -354
174 0 246 70 271 265 13 104 1 234 -28 304 -20 47 -70 99 -114 117 -42 18
-152 26 -197 15z m149 -173 c21 -30 23 -43 23 -163 0 -72 -3 -142 -8 -157 -11
-40 -45 -68 -85 -68 -81 0 -102 42 -102 207 0 180 15 212 102 213 41 0 49 -4
70 -32z"/>
<path d="M117 853 c-4 -3 -7 -37 -7 -75 l0 -68 75 0 75 0 2 -267 3 -268 74 -3
c53 -2 77 1 82 10 5 7 9 129 9 270 l0 257 73 3 72 3 3 73 3 72 -229 0 c-126 0
-232 -3 -235 -7z"/>
<path d="M1237 854 c-4 -4 -7 -127 -7 -273 0 -244 2 -270 20 -310 40 -88 102
-115 251 -109 147 6 198 42 225 157 20 82 19 514 0 530 -9 7 -41 11 -83 9
l-68 -3 -5 -262 c-5 -247 -6 -263 -25 -277 -29 -22 -98 -20 -126 3 -24 19 -24
21 -29 278 l-5 258 -70 3 c-39 1 -74 0 -78 -4z"/>
<path d="M1820 515 l0 -345 80 0 80 0 0 115 0 115 28 0 c23 0 30 -6 41 -37 7
-21 27 -73 43 -116 l29 -77 85 0 c46 0 84 4 84 9 0 11 -66 180 -80 203 -13 22
-13 58 -1 58 16 0 65 59 78 92 15 42 16 140 2 188 -12 39 -50 87 -86 107 -35
20 -140 33 -265 33 l-118 0 0 -345z m301 174 c5 -7 9 -34 9 -59 0 -65 -9 -73
-84 -78 l-66 -4 0 82 0 82 66 -4 c42 -3 69 -9 75 -19z"/>
<path d="M2377 853 c-4 -3 -7 -159 -7 -345 l0 -339 83 3 82 3 5 170 c6 189 3
190 59 -30 l36 -140 86 -3 86 -3 37 153 c21 84 40 162 44 173 4 11 9 -56 12
-150 l5 -170 83 -3 82 -3 -2 343 -3 343 -122 3 c-68 1 -123 1 -123 -1 0 -12
-91 -361 -95 -365 -3 -3 -7 -3 -10 0 -4 4 -95 353 -95 365 0 6 -237 3 -243 -4z"/>
<path d="M3757 853 c-4 -3 -7 -159 -7 -345 l0 -338 75 0 75 0 0 175 c0 96 4
175 9 175 5 0 48 -79 96 -175 l87 -175 84 0 c78 0 84 1 89 23 3 12 4 166 3
342 l-3 320 -75 0 -75 0 -5 -180 -5 -180 -93 183 -94 182 -77 0 c-43 0 -81 -3
-84 -7z"/>
<path d="M4357 853 c-4 -3 -7 -159 -7 -346 l0 -339 173 4 c167 3 173 4 219 30
97 57 123 125 122 313 0 110 -4 139 -22 185 -40 98 -90 135 -206 150 -83 11
-270 13 -279 3z m301 -166 c10 -10 24 -35 30 -56 15 -50 14 -206 -2 -251 -15
-43 -63 -70 -123 -70 l-43 0 0 201 0 201 60 -4 c37 -3 66 -11 78 -21z"/>
</g>
</svg>
