<?xml version="1.0" standalone="no"?>
<!DOCTYPE svg PUBLIC "-//W3C//DTD SVG 20010904//EN"
 "http://www.w3.org/TR/2001/REC-SVG-20010904/DTD/svg10.dtd">
<svg version="1.0" xmlns="http://www.w3.org/2000/svg"
 width="500.000000pt" height="500.000000pt" viewBox="0 0 500.000000 500.000000"
 preserveAspectRatio="xMidYMid meet">
<metadata>
Created by potrace 1.15, written by Peter Selinger 2001-2017
</metadata>
<g transform="translate(0.000000,500.000000) scale(0.100000,-0.100000)"
fill="#000000" stroke="none">
<path d="M2275 3603 c-27 -43 -78 -125 -115 -183 -37 -58 -86 -136 -110 -175
-137 -220 -171 -267 -187 -261 -9 4 -67 38 -128 76 -62 39 -115 70 -118 70 -2
0 -17 -19 -32 -42 -15 -24 -60 -86 -99 -138 -40 -52 -119 -160 -176 -240 -57
-80 -114 -160 -128 -177 l-24 -33 30 0 c26 0 38 10 81 68 27 37 70 94 95 127
25 33 80 107 122 165 43 58 93 126 112 151 l34 47 65 -42 c35 -22 80 -52 101
-64 20 -13 28 -21 17 -17 -42 14 -117 27 -122 21 -3 -3 0 -12 7 -21 16 -20 6
-19 -25 1 -34 22 -31 9 8 -40 18 -23 45 -58 60 -78 l27 -37 -62 38 c-57 35
-63 37 -66 19 -2 -10 1 -25 7 -31 5 -7 15 -25 21 -41 l10 -28 -34 21 c-66 41
-67 26 -5 -76 25 -41 33 -63 24 -63 -19 0 -138 62 -151 79 -8 10 -13 11 -18 3
-7 -12 8 -31 86 -116 66 -71 62 -84 -13 -46 -31 16 -44 18 -60 9 -17 -9 -25
-7 -45 12 l-24 23 -35 -34 c-26 -25 -35 -30 -35 -17 0 9 -4 17 -8 17 -10 0
-42 -33 -42 -44 0 -10 299 -6 305 4 3 5 11 7 18 4 8 -3 32 26 60 73 26 43 65
107 87 143 97 161 104 170 124 170 15 0 17 3 9 11 -12 12 4 39 202 354 48 77
107 172 131 210 74 120 64 116 113 51 l43 -57 -32 16 c-42 22 -45 16 -12 -20
29 -32 119 -138 141 -167 11 -15 7 -14 -28 3 -43 20 -75 25 -69 10 4 -12 154
-197 183 -226 11 -11 27 -29 35 -39 13 -18 13 -19 0 -11 -42 24 -195 130 -198
137 -2 4 -8 8 -14 8 -6 0 -39 23 -75 51 -36 28 -66 49 -69 47 -2 -2 11 -21 28
-43 30 -36 108 -158 104 -162 -1 -1 -35 7 -76 18 -40 10 -78 19 -83 19 -6 0
14 -26 44 -59 90 -97 173 -192 189 -216 21 -31 78 -95 85 -95 3 0 13 17 21 37
11 24 18 32 23 24 10 -15 21 8 21 40 0 21 27 95 61 164 10 22 28 66 39 99 27
79 57 125 87 132 20 6 34 -3 81 -47 31 -30 59 -55 61 -57 3 -2 0 -7 -7 -11
-16 -10 -4 -20 51 -46 20 -9 37 -21 37 -25 0 -5 17 -14 38 -21 20 -6 48 -19
62 -29 31 -20 97 -40 136 -40 33 0 186 -101 164 -108 -13 -5 -83 9 -180 35
-30 8 -71 18 -90 23 -19 5 -62 16 -95 25 -90 25 -115 29 -115 16 0 -6 12 -16
26 -21 15 -6 38 -20 53 -31 14 -11 50 -38 80 -60 50 -35 57 -52 13 -30 -61 31
-227 91 -250 91 -24 0 12 -29 78 -64 30 -16 62 -34 70 -41 8 -7 38 -24 65 -37
28 -14 82 -42 120 -63 39 -21 80 -43 92 -49 43 -21 23 -28 -54 -21 -102 10
-163 12 -163 4 0 -8 112 -49 134 -49 19 0 50 -16 88 -46 25 -20 35 -21 169
-17 79 2 145 5 147 7 2 2 -13 13 -32 25 -20 12 -33 28 -30 35 4 12 -91 79
-140 99 -10 4 -17 10 -14 12 2 3 33 -5 67 -16 67 -23 78 -21 62 9 -8 15 10 9
82 -27 51 -25 94 -48 97 -51 3 -3 25 -16 50 -29 25 -13 49 -28 55 -32 14 -14
-27 -11 -91 6 -32 8 -59 13 -62 11 -2 -2 13 -15 33 -29 30 -20 44 -24 83 -19
26 3 50 9 53 15 4 6 16 3 30 -7 24 -16 79 -22 79 -8 0 10 -139 112 -252 186
-49 31 -88 60 -88 65 0 4 -19 26 -41 47 -23 21 -65 62 -93 91 -54 55 -42 51
-263 105 -35 9 -63 31 -151 118 -131 130 -189 170 -248 170 -37 0 -47 -5 -78
-42 -20 -23 -36 -45 -36 -50 0 -19 -27 -5 -53 27 -57 71 -204 272 -256 350
-30 44 -57 84 -61 88 -4 5 -29 -27 -55 -70z"/>
<path d="M2130 2847 c0 -10 9 -35 20 -56 25 -50 69 -181 61 -181 -4 0 -12 5
-19 12 -9 9 -12 9 -12 0 0 -6 -7 -9 -16 -5 -14 5 -16 2 -10 -23 l7 -29 -21 30
c-56 81 -90 135 -90 141 0 13 -63 105 -68 99 -6 -6 18 -115 29 -130 4 -5 10
-26 14 -45 l6 -36 -58 -20 c-60 -22 -85 -49 -76 -84 5 -18 19 -19 244 -17 131
1 239 4 239 6 0 7 -104 152 -162 226 -32 40 -58 77 -58 82 0 5 -7 18 -15 29
-13 18 -14 18 -15 1z"/>
<path d="M2370 2810 c0 -22 31 -83 50 -100 25 -22 25 -37 0 -78 l-21 -33 32
-40 c17 -21 34 -39 37 -39 12 0 92 173 92 197 0 1 -34 21 -75 44 -41 22 -77
45 -81 50 -7 12 -34 11 -34 -1z"/>
<path d="M2900 2632 c0 -4 5 -13 12 -20 21 -21 2 -23 -47 -7 -26 9 -49 14 -52
11 -3 -3 5 -19 18 -37 l22 -32 -46 5 c-29 4 -56 0 -73 -8 -14 -8 -33 -14 -40
-14 -8 0 -14 -6 -14 -13 0 -10 38 -12 173 -9 94 2 175 7 179 10 4 4 -3 18 -16
33 -26 30 -116 93 -116 81z"/>
<path d="M805 2461 c-132 -33 -185 -132 -185 -351 0 -188 38 -280 133 -328 52
-25 157 -34 228 -19 60 12 117 61 147 125 26 55 27 64 27 222 0 151 -2 169
-23 216 -30 66 -74 108 -135 128 -49 16 -139 20 -192 7z m130 -147 c42 -16 64
-137 50 -279 -6 -68 -11 -83 -35 -107 -35 -35 -79 -37 -115 -5 -34 29 -49 120
-40 241 6 90 16 121 44 143 17 13 69 17 96 7z"/>
<path d="M3297 2454 c-95 -34 -141 -107 -158 -250 -14 -125 1 -259 38 -326 50
-92 148 -136 274 -122 160 18 229 124 229 351 0 194 -36 285 -135 335 -54 28
-183 34 -248 12z m172 -158 c18 -20 25 -42 32 -106 8 -88 -1 -213 -20 -248
-31 -58 -122 -54 -151 7 -7 14 -15 76 -18 136 -7 171 19 235 96 235 28 0 45
-7 61 -24z"/>
<path d="M100 2385 l0 -75 80 0 80 0 0 -275 0 -276 83 3 82 3 3 273 2 272 75
0 75 0 0 75 0 75 -240 0 -240 0 0 -75z"/>
<path d="M1220 2208 c0 -281 9 -340 57 -390 46 -48 86 -60 203 -61 122 0 179
20 218 77 38 56 42 91 42 363 l0 263 -84 0 -85 0 -3 -261 -3 -261 -25 -20
c-19 -16 -35 -19 -68 -15 -24 3 -49 10 -55 16 -8 8 -14 94 -17 274 l-5 262
-87 3 -88 3 0 -253z"/>
<path d="M1815 2447 c-3 -6 -4 -163 -3 -347 l3 -335 85 0 85 0 0 118 c0 113 1
117 21 117 18 0 29 -19 69 -120 l47 -120 89 0 c49 0 89 4 89 8 0 5 -23 64 -50
132 l-50 124 30 24 c51 40 70 90 70 182 0 124 -44 189 -146 218 -58 17 -333
16 -339 -1z m298 -156 c16 -16 16 -106 0 -122 -7 -7 -37 -14 -68 -17 l-55 -4
0 82 0 82 55 -4 c31 -3 61 -10 68 -17z"/>
<path d="M2372 2113 l3 -348 82 -3 83 -3 2 178 3 178 38 -155 c53 -218 41
-200 136 -200 66 0 82 3 89 18 5 9 27 89 48 177 l39 160 3 -178 2 -178 83 3
82 3 3 348 2 348 -127 -3 -127 -3 -45 -182 c-24 -101 -47 -183 -51 -183 -3 0
-26 82 -50 183 l-45 182 -128 3 -127 3 2 -348z"/>
<path d="M3745 2447 c-3 -6 -4 -163 -3 -347 l3 -335 80 0 80 0 0 178 c0 97 2
177 5 177 3 0 45 -82 94 -181 l88 -180 87 3 86 3 3 348 2 347 -80 0 -80 0 -1
-182 0 -183 -92 183 -92 182 -88 0 c-61 0 -89 -4 -92 -13z"/>
<path d="M4352 2113 l3 -348 100 -3 c226 -8 330 29 381 135 27 55 29 64 29
203 0 164 -11 219 -57 274 -55 67 -125 86 -316 86 l-142 0 2 -347z m306 164
c34 -35 49 -146 33 -244 -16 -92 -38 -113 -117 -113 l-54 0 0 196 0 197 57 -6
c41 -4 63 -12 81 -30z"/>
</g>
</svg>
